<svg width="107" height="107" viewBox="0 0 107 107" fill="none" xmlns="http://www.w3.org/2000/svg">
<g id="map-marker-area-line-svgrepo-com 1">
<path id="Vector" d="M80.25 71.4047C85.8006 73.7631 89.1667 76.8572 89.1667 80.25C89.1667 87.6375 73.1969 93.625 53.5 93.625C33.8031 93.625 17.8333 87.6375 17.8333 80.25C17.8333 76.8617 21.1994 73.7587 26.75 71.4047" stroke="#7E52A0" stroke-width="8" stroke-linecap="round" stroke-linejoin="round"/>
<path id="Vector_2" d="M75.7917 37.6462C75.7917 51.4358 53.5 75.7917 53.5 75.7917C53.5 75.7917 31.2083 51.4358 31.2083 37.6462C31.2083 23.861 41.1906 13.375 53.5 13.375C65.8095 13.375 75.7917 23.861 75.7917 37.6462Z" stroke="#7E52A0" stroke-width="8" stroke-linecap="round" stroke-linejoin="round"/>
<path id="Vector_3" d="M53.5 40.125C55.9623 40.125 57.9583 38.1289 57.9583 35.6666C57.9583 33.2044 55.9623 31.2083 53.5 31.2083C51.0377 31.2083 49.0417 33.2044 49.0417 35.6666C49.0417 38.1289 51.0377 40.125 53.5 40.125Z" stroke="#7E52A0" stroke-width="9" stroke-linecap="round" stroke-linejoin="round"/>
</g>
</svg>
