<svg width="120" height="120" viewBox="0 0 120 120" fill="none" xmlns="http://www.w3.org/2000/svg">
<g id="Frame">
<g id="SVGRepo_iconCarrier">
<path id="Vector" fill-rule="evenodd" clip-rule="evenodd" d="M26.0709 83.4895L61.5295 39.2503C61.5295 39.2503 61.5436 31.8488 67.6181 26.6578C75.023 20.3306 86.6616 21.3886 92.7633 28.1583C98.8645 34.9285 100.519 45.9802 92.1773 53.9067C86.9845 58.8408 81.1373 58.7935 81.1373 58.7935L36.742 94.2525L32.362 89.9681L24.2686 97.5094C24.2686 97.5094 23.5987 98.0663 22.9355 97.2385C22.2722 96.4111 22.6026 95.7 22.6026 95.7L30.5897 88.1049L26.0709 83.4895ZM34.3814 82.9533L37.0472 85.5239L72.2794 57.7974C72.2794 57.7974 68.5247 55.7274 66.2733 53.3588C64.0214 50.9902 62.7201 47.7427 62.7201 47.7427L34.3814 82.9533ZM69.9253 33.4214C69.9253 33.4214 63.6914 42.0183 71.0494 49.0444C78.4078 56.0709 86.7825 50.1694 86.7825 50.1694C86.7825 50.1694 79.2492 48.4224 75.1622 44.3616C71.0747 40.3013 69.9253 33.421 69.9253 33.421V33.4214ZM72.4533 31.306C72.4533 31.306 74.1886 37.9195 78.36 42.1214C82.5314 46.3238 89.0822 48.0567 89.0822 48.0567C89.0822 48.0567 95.122 38.9067 87.5489 31.9702C79.9753 25.0336 72.4533 31.306 72.4533 31.306Z" fill="#7E52A0" stroke="#7E52A0"/>
</g>
</g>
</svg>
