<svg width="100" height="100" viewBox="0 0 100 100" fill="none" xmlns="http://www.w3.org/2000/svg">
<g id="Frame" clip-path="url(#clip0_340_816)">
<g id="SVGRepo_iconCarrier">
<g id="Group">
<path id="Vector" fill-rule="evenodd" clip-rule="evenodd" d="M54.2188 26.0812C53.8349 25.2887 53.2356 24.6204 52.4895 24.1527C51.7433 23.685 50.8806 23.437 50 23.437C49.1194 23.437 48.2566 23.685 47.5105 24.1527C46.7644 24.6204 46.1651 25.2887 45.7812 26.0812L38.6562 40.825L22.7437 43.2C21.8849 43.3289 21.0788 43.6939 20.4153 44.2542C19.7518 44.8145 19.257 45.5481 18.9861 46.3732C18.7152 47.1983 18.6788 48.0824 18.881 48.927C19.0832 49.7715 19.516 50.5433 20.1313 51.1562L31.6938 62.6562L28.9625 78.9062C28.8162 79.771 28.9155 80.6595 29.2491 81.4706C29.5826 82.2817 30.137 82.983 30.8493 83.4948C31.5616 84.0065 32.4031 84.3082 33.2783 84.3654C34.1534 84.4227 35.0271 84.2333 35.8 83.8188L50 76.1875L64.2 83.8125C64.9724 84.2265 65.8453 84.4157 66.7198 84.3586C67.5943 84.3015 68.4353 84.0005 69.1473 83.4896C69.8593 82.9787 70.4138 82.2784 70.7479 81.4683C71.082 80.6581 71.1824 79.7705 71.0375 78.9062L68.3062 62.6437L79.8687 51.15C80.484 50.5371 80.9168 49.7653 81.119 48.9207C81.3212 48.0762 81.2848 47.192 81.0139 46.3669C80.743 45.5419 80.2482 44.8082 79.5847 44.2479C78.9212 43.6876 78.1151 43.3227 77.2563 43.1937L61.35 40.8187L54.225 26.075L54.2188 26.0812ZM46.0125 47.1375L50 38.8875L53.9875 47.1375C54.3203 47.8248 54.816 48.4203 55.4314 48.8723C56.0469 49.3244 56.7634 49.6192 57.5188 49.7312L66.6375 51.0937L59.975 57.7125C59.4446 58.2413 59.0486 58.8896 58.8202 59.6029C58.5919 60.3163 58.5378 61.0739 58.6625 61.8125L60.2063 71.0375L52.2187 66.75C51.5366 66.3835 50.7743 66.1916 50 66.1916C49.2256 66.1916 48.4634 66.3835 47.7812 66.75L39.7938 71.0375L41.3438 61.8125C41.4677 61.0734 41.4126 60.3154 41.1831 59.6021C40.9537 58.8887 40.5565 58.2407 40.025 57.7125L33.3625 51.0875L42.4875 49.7312C43.2417 49.6183 43.957 49.323 44.5713 48.871C45.1856 48.419 45.6803 47.824 46.0125 47.1375Z" fill="#7E52A0"/>
<path id="Vector_2" fill-rule="evenodd" clip-rule="evenodd" d="M75 4.6875C75 3.4443 74.5061 2.25201 73.6271 1.37294C72.748 0.49386 71.5557 0 70.3125 0C69.0693 0 67.877 0.49386 66.9979 1.37294C66.1189 2.25201 65.625 3.4443 65.625 4.6875V6.25H34.375V4.6875C34.375 3.4443 33.8811 2.25201 33.0021 1.37294C32.123 0.49386 30.9307 0 29.6875 0C28.4443 0 27.252 0.49386 26.3729 1.37294C25.4939 2.25201 25 3.4443 25 4.6875V6.25H14.0625C10.3329 6.25 6.75604 7.73158 4.11881 10.3688C1.48158 13.006 0 16.5829 0 20.3125L0 85.9375C0 89.6671 1.48158 93.244 4.11881 95.8812C6.75604 98.5184 10.3329 100 14.0625 100H85.9375C89.6671 100 93.244 98.5184 95.8812 95.8812C98.5184 93.244 100 89.6671 100 85.9375V20.3125C100 16.5829 98.5184 13.006 95.8812 10.3688C93.244 7.73158 89.6671 6.25 85.9375 6.25H75V4.6875ZM25 20.3125V15.625H14.0625C12.8193 15.625 11.627 16.1189 10.7479 16.9979C9.86886 17.877 9.375 19.0693 9.375 20.3125V85.9375C9.375 88.525 11.475 90.625 14.0625 90.625H85.9375C87.1807 90.625 88.373 90.1311 89.2521 89.2521C90.1311 88.373 90.625 87.1807 90.625 85.9375V20.3125C90.625 19.0693 90.1311 17.877 89.2521 16.9979C88.373 16.1189 87.1807 15.625 85.9375 15.625H75V20.3125C75 21.5557 74.5061 22.748 73.6271 23.6271C72.748 24.5061 71.5557 25 70.3125 25C69.0693 25 67.877 24.5061 66.9979 23.6271C66.1189 22.748 65.625 21.5557 65.625 20.3125V15.625H34.375V20.3125C34.375 21.5557 33.8811 22.748 33.0021 23.6271C32.123 24.5061 30.9307 25 29.6875 25C28.4443 25 27.252 24.5061 26.3729 23.6271C25.4939 22.748 25 21.5557 25 20.3125Z" fill="#7E52A0"/>
</g>
</g>
</g>
<defs>
<clipPath id="clip0_340_816">
<rect width="100" height="100" fill="white"/>
</clipPath>
</defs>
</svg>
