<svg width="100" height="100" viewBox="0 0 100 100" fill="none" xmlns="http://www.w3.org/2000/svg">
<g id="Capa_1" clip-path="url(#clip0_340_807)">
<g id="SVGRepo_iconCarrier">
<g id="Group">
<g id="Group_2">
<path id="Vector" d="M6.75163 20.6595C6.75163 24.0787 8.30816 27.2473 11.0252 29.3584C12.9793 30.8772 15.3127 31.6779 17.77 31.6779C20.227 31.6779 22.5582 30.8772 24.5137 29.3584C27.2297 27.2477 28.7862 24.0769 28.7862 20.6595C28.7862 14.5852 23.8448 9.64305 17.7697 9.64305C11.6949 9.64305 6.75163 14.5852 6.75163 20.6595ZM17.77 15.0556C20.8604 15.0556 23.374 17.571 23.374 20.6595C23.374 22.3961 22.5801 24.0063 21.1946 25.0837C19.2027 26.6297 16.3377 26.6297 14.3459 25.0837C12.9585 24.0063 12.1646 22.3958 12.1646 20.6595C12.1642 17.5691 14.6793 15.0556 17.77 15.0556Z" fill="#7E52A0" stroke="#7E52A0"/>
<path id="Vector_2" d="M3.68237 68.6992C3.89378 68.8 4.11954 68.8774 4.34303 68.9586C4.45667 69.0009 4.56162 69.0537 4.67676 69.0907V77.3524V77.4125V82.8624C4.67676 86.3948 7.80832 89.2704 11.6583 89.2704H12.2952C14.4335 89.2704 16.3494 88.3859 17.6304 86.9925C18.8954 88.5603 20.9148 89.5804 23.1875 89.5804H23.8157C27.6347 89.5804 30.7421 86.7033 30.7421 83.1704V77.3611V68.9763C30.966 68.8952 31.174 68.7914 31.3843 68.6906C31.4749 68.6487 31.5734 68.6169 31.6625 68.5694C31.8573 68.4656 32.0333 68.3455 32.2156 68.2292C32.3134 68.1658 32.4202 68.1114 32.5135 68.0442C32.6785 67.9264 32.8238 67.789 32.9733 67.6603C33.0677 67.5791 33.1723 67.5051 33.2606 67.4187C33.4018 67.285 33.5203 67.1333 33.6464 66.9868C33.7276 66.8898 33.8201 66.8056 33.896 66.7048C34.013 66.55 34.1093 66.3824 34.2112 66.2185C34.2746 66.1147 34.3505 66.0196 34.4068 65.9139C34.5053 65.7308 34.5797 65.5367 34.6586 65.3446C34.6978 65.2475 34.7511 65.1562 34.7854 65.0573C34.8575 64.8493 34.9024 64.6307 34.9493 64.4178C34.9693 64.3245 35.0029 64.2396 35.018 64.1463C35.0701 63.8345 35.0988 63.5174 35.0988 63.1935V41.4406C35.0988 36.3705 29.7153 31.9289 26.2239 31.5193L24.9249 31.4038L24.0048 32.2846C23.5194 32.7482 22.9723 33.1631 22.383 33.5187C19.4134 35.2923 15.5713 35.1696 12.746 33.2676C12.3477 33.0007 11.9418 32.6689 11.5409 32.288L10.7904 31.5375L9.50227 31.4759C5.44163 31.4759 0 36.4014 0 41.4406V63.1863C0 63.5245 0.0309569 63.856 0.0887181 64.1803C0.113257 64.3249 0.166488 64.4623 0.202353 64.6012C0.247278 64.7757 0.281633 64.9553 0.342414 65.1249C0.397155 65.2744 0.476057 65.4137 0.543257 65.5598C0.613099 65.7111 0.66935 65.8663 0.752027 66.0124C0.842633 66.171 0.956645 66.3174 1.06046 66.4688C1.14427 66.5866 1.21185 66.7135 1.30283 66.8263C1.42704 66.9834 1.57503 67.1223 1.71585 67.2669C1.80758 67.362 1.88686 67.4678 1.98464 67.5561C2.1583 67.7147 2.35311 67.8555 2.54564 67.9967C2.62681 68.0563 2.69892 68.1269 2.78159 68.1832C3.00547 68.3327 3.24746 68.4614 3.49058 68.5882C3.55476 68.6234 3.61366 68.666 3.68237 68.6992ZM5.40916 41.4406C5.40916 39.7289 7.53839 37.7598 8.83708 37.1089C9.13117 37.3434 9.42564 37.5601 9.7235 37.7602C14.2515 40.8056 20.4146 40.9933 25.1563 38.1645C25.6259 37.8832 26.0767 37.5786 26.5078 37.2501C27.8643 38.0237 29.6854 39.8984 29.6854 41.441V63.1867C29.6854 63.423 29.2581 63.8371 28.5578 63.9779C28.4509 64.001 28.3411 64.0081 28.2475 64.0153L25.4998 64.0859L25.4938 64.3675L25.3519 64.3713L25.299 66.9702C25.299 67.0091 25.2971 67.1533 25.2971 67.3651L25.2416 67.6029L25.2971 67.9763C25.3024 70.2086 25.3243 75.4999 25.3315 77.3728V83.1712C25.3315 83.6435 24.684 84.1686 23.818 84.1686H23.1898C22.3241 84.1686 21.6744 83.6435 21.6744 83.1712V67.6592H13.8672V82.8627C13.8672 83.3331 13.1941 83.8583 12.2956 83.8583H11.6587C10.7602 83.8583 10.0897 83.3331 10.0897 82.8627L10.1142 67.7966L10.1796 67.1571L10.0587 63.85L7.28734 64.0119H7.24959C7.06875 64.0119 6.72105 64.0085 6.62932 64.0032C5.87427 63.8855 5.40916 63.4464 5.40916 63.1874V41.4406Z" fill="#7E52A0" stroke="#7E52A0"/>
<path id="Vector_3" d="M90.9368 81.364V68.0333C91.6152 67.9185 92.5522 67.7709 93.8475 67.5841C94.2386 67.5278 94.4957 67.4855 94.538 67.475C97.7518 66.8264 100 64.3177 100 61.3821L95.2817 39.3137C95.0597 34.3802 89.8303 30.1138 86.4122 29.7148L85.115 29.5993L84.1938 30.4804C83.7095 30.9436 83.1632 31.3585 82.5712 31.7145C79.6005 33.4878 75.7577 33.3628 72.9368 31.465C72.5699 31.2192 72.2003 30.9217 71.7491 30.505L71.0303 29.7348L69.6913 29.6714C65.7167 29.6714 60.42 34.39 60.1946 39.3137L55.5398 60.8109L55.4782 61.3821C55.4782 64.4178 57.908 67.0076 61.2449 67.5414C61.562 67.5927 61.8897 67.6226 62.2227 67.6331L62.5134 67.6471C62.5349 67.6471 63.6641 67.6437 64.8673 67.6365V81.0556C64.8673 84.588 67.9999 87.4655 71.8518 87.4655H72.4895C74.6266 87.4655 76.5399 86.5776 77.8246 85.1857C79.0878 86.7539 81.1068 87.7724 83.3799 87.7724H84.0088C87.8286 87.7721 90.9368 84.8965 90.9368 81.364ZM85.5876 65.1347L85.4329 65.7954L85.5242 66.4002V81.364C85.5242 81.8344 84.876 82.3599 84.0088 82.3599H83.3799C82.515 82.3599 81.8664 81.8344 81.8664 81.364V65.852H74.0592V81.0556C74.0592 81.5278 73.388 82.053 72.4895 82.053H71.853C70.9544 82.053 70.2813 81.5278 70.2813 81.0556L70.3047 66.0019L70.3783 65.3514L70.2198 62.15L67.505 62.2063C67.1717 62.2134 63.3575 62.2308 62.6316 62.2346L62.4428 62.224C62.3337 62.2206 62.2261 62.2168 62.1117 62.198C61.4756 62.0972 61.0475 61.7732 60.9274 61.5158L65.5404 40.2088L65.6 39.6361C65.6 37.9244 67.7304 35.9556 69.0325 35.3044C69.3235 35.5388 69.6191 35.7555 69.9151 35.9556C74.445 39.0011 80.6047 39.1921 85.3517 36.3599C85.8168 36.0825 86.2642 35.7793 86.7013 35.4456C88.0582 36.2172 89.8763 38.0939 89.8763 39.6365L94.5523 61.5124C94.4398 61.7468 94.054 62.0552 93.5341 62.1591L93.0705 62.2281C87.4923 63.0383 86.1656 63.2301 85.5876 65.1347Z" fill="#7E52A0" stroke="#7E52A0"/>
<path id="Vector_4" d="M77.9621 7.83888C71.8866 7.83888 66.9463 12.781 66.9463 18.8554C66.9463 22.2746 68.5036 25.4431 71.2206 27.5557C73.1766 29.0726 75.5055 29.8737 77.9632 29.8737C80.4209 29.8737 82.754 29.0726 84.7095 27.5539C87.4247 25.4431 88.9805 22.2727 88.9805 18.855C88.9812 12.781 84.0387 7.83888 77.9621 7.83888ZM81.3873 23.2795C79.3966 24.8255 76.5316 24.8255 74.5402 23.2795C73.1535 22.2021 72.3592 20.5916 72.3592 18.8554C72.3592 15.765 74.875 13.2518 77.9639 13.2518C81.0562 13.2518 83.5687 15.7669 83.5687 18.8554C83.5683 20.5916 82.7736 22.2036 81.3873 23.2795Z" fill="#7E52A0" stroke="#7E52A0"/>
<path id="Vector_5" d="M49.7225 96.9092V3.0904C49.7225 1.59617 48.5122 0.384323 47.0164 0.384323C45.5207 0.384323 44.31 1.59655 44.31 3.0904V96.9092C44.31 98.4035 45.5207 99.6157 47.0164 99.6157C48.5122 99.6157 49.7225 98.4035 49.7225 96.9092Z" fill="#7E52A0" stroke="#7E52A0"/>
</g>
</g>
</g>
</g>
<defs>
<clipPath id="clip0_340_807">
<rect width="100" height="100" fill="white"/>
</clipPath>
</defs>
</svg>
