<svg width="30" height="30" viewBox="0 0 30 30" fill="none" xmlns="http://www.w3.org/2000/svg">
<g id="home-button-svgrepo-com 1" clip-path="url(#clip0_341_168)">
<g id="Group">
<path id="Vector" d="M29.6255 13.9585L16.1345 2.09366C15.5058 1.54044 14.4874 1.54044 13.8672 2.09366L0.380373 13.9585C-0.248284 14.5118 -0.080642 14.9602 0.757567 14.9602H4.91925V27.11C4.91925 27.7722 5.46409 28.3212 6.13043 28.3212H11.2225V20.3289C11.2225 19.6667 11.7674 19.1177 12.4338 19.1177H17.5762C18.2467 19.1177 18.7873 19.6541 18.7873 20.3289V28.3212H23.8794C24.55 28.3212 25.0906 27.7764 25.0906 27.11V14.956H29.2524C30.0781 14.956 30.2457 14.5118 29.6255 13.9585Z" fill="#7E52A0"/>
</g>
</g>
<defs>
<clipPath id="clip0_341_168">
<rect width="30" height="30" fill="white"/>
</clipPath>
</defs>
</svg>
