<svg width="100" height="100" viewBox="0 0 100 100" fill="none" xmlns="http://www.w3.org/2000/svg">
<g id="Uploaded to svgrepo.com">
<g id="SVGRepo_iconCarrier">
<path id="Vector" d="M12.5 12.5V87.5H87.5V12.5H12.5ZM18.75 31.25H34.375V43.75H18.75V31.25ZM59.375 43.75H40.625V31.25H59.375V43.75ZM59.375 50V62.5H40.625V50H59.375ZM18.75 50H34.375V62.5H18.75V50ZM18.75 81.25V68.75H34.375V81.25H18.75ZM40.625 81.25V68.75H59.375V81.25H40.625ZM81.25 81.25H65.625V68.75H81.25V81.25ZM81.25 62.5H65.625V50H81.25V62.5ZM81.25 43.75H65.625V31.25H81.25V43.75ZM18.75 25V18.75H81.25V25H18.75Z" fill="#7E52A0"/>
</g>
</g>
</svg>
