<svg width="94" height="82" viewBox="0 0 94 82" fill="none" xmlns="http://www.w3.org/2000/svg">
<g id="Layer_1" clip-path="url(#clip0_340_844)">
<path id="Vector" d="M48.2393 73.8076C48.8601 73.8076 49.4555 74.054 49.8945 74.4926C50.3335 74.9311 50.5801 75.5259 50.5801 76.1461C50.5801 76.7663 50.3335 77.3611 49.8945 77.7997C49.4555 78.2383 48.8601 78.4846 48.2393 78.4846H5.44661C4.00915 78.4772 2.63344 77.9 1.62174 76.8798C0.604067 75.8674 0.0292123 74.4935 0.0229492 73.0587V5.44119C0.0253879 4.72994 0.168574 4.02619 0.44427 3.37042C0.719966 2.71466 1.12273 2.11982 1.62939 1.62013C2.63718 0.59691 4.00978 0.014343 5.44661 0L70.0946 0C71.5308 0.00625681 72.906 0.580539 73.9194 1.5972L74.0801 1.77297C74.9987 2.77492 75.5114 4.08248 75.5182 5.44119V37.4464C75.5182 38.0666 75.2716 38.6614 74.8326 39.1C74.3936 39.5385 73.7982 39.7849 73.1774 39.7849C72.5566 39.7849 71.9612 39.5385 71.5222 39.1C71.0832 38.6614 70.8366 38.0666 70.8366 37.4464V5.44119C70.8356 5.26881 70.7763 5.10184 70.6683 4.96738L70.6071 4.90624C70.4659 4.76226 70.2734 4.67985 70.0716 4.67698H5.44661C5.24484 4.67985 5.05237 4.76226 4.91113 4.90624C4.76981 5.04859 4.69014 5.24071 4.68929 5.44119V73.0434C4.69216 73.245 4.77465 73.4373 4.91878 73.5784C5.06127 73.7196 5.25358 73.7992 5.45426 73.8L48.2393 73.8076ZM73.0091 51.5232C75.7171 48.6956 77.599 46.2578 81.8063 45.7763C89.6397 44.8822 96.8381 52.8988 92.8755 60.7855C91.751 63.0322 89.4561 65.707 86.924 68.3282C84.1471 71.2093 81.0872 74.0293 78.8994 76.1691L73.0168 82L68.1515 77.323C62.2995 71.6984 52.7832 64.6065 52.439 55.8334C52.2248 49.7197 57.0824 45.7458 62.6667 45.8145C67.6619 45.8833 69.7733 48.3594 73.0091 51.5232ZM18.1911 51.5232C18.7401 51.5232 19.2767 51.6863 19.7327 51.9916C20.1887 52.297 20.5436 52.7309 20.7523 53.2382C20.961 53.7454 21.014 54.3032 20.9046 54.8407C20.7953 55.3782 20.5285 55.871 20.1381 56.2567C19.7478 56.6423 19.2515 56.9034 18.7123 57.0066C18.1732 57.1099 17.6154 57.0507 17.11 56.8366C16.6045 56.6226 16.1742 56.2632 15.8736 55.8043C15.573 55.3453 15.4158 54.8075 15.4219 54.2591C15.4219 53.8958 15.4935 53.5361 15.6327 53.2004C15.7718 52.8648 15.9758 52.5598 16.233 52.3029C16.4901 52.046 16.7954 51.8422 17.1314 51.7032C17.4673 51.5642 17.8274 51.4926 18.1911 51.4926V51.5232ZM29.4439 57.079C28.8924 56.9747 28.3946 56.6813 28.0365 56.2495C27.6785 55.8177 27.4825 55.2745 27.4825 54.7138C27.4825 54.1531 27.6785 53.6099 28.0365 53.1781C28.3946 52.7463 28.8924 52.4529 29.4439 52.3486H38.4705C39.022 52.4529 39.5198 52.7463 39.8779 53.1781C40.2359 53.6099 40.4319 54.1531 40.4319 54.7138C40.4319 55.2745 40.2359 55.8177 39.8779 56.2495C39.5198 56.6813 39.022 56.9747 38.4705 57.079H29.4439ZM18.1911 35.1538C18.7391 35.1538 19.2748 35.3162 19.7304 35.6205C20.1859 35.9249 20.5408 36.3574 20.7502 36.8633C20.9596 37.3693 21.014 37.9259 20.9065 38.4627C20.799 38.9996 20.5345 39.4925 20.1465 39.8791C19.7584 40.2657 19.2643 40.5286 18.7266 40.6344C18.1889 40.7403 17.6319 40.6844 17.126 40.4739C16.6202 40.2633 16.1882 39.9076 15.8848 39.4516C15.5815 38.9957 15.4204 38.4601 15.4219 37.9126C15.4239 37.1802 15.7165 36.4785 16.2357 35.9613C16.7548 35.4442 17.458 35.1538 18.1911 35.1538ZM29.4439 40.4574C28.8928 40.3626 28.3931 40.0763 28.0328 39.6491C27.6726 39.2219 27.475 38.6813 27.475 38.1227C27.475 37.5642 27.6726 37.0236 28.0328 36.5964C28.3931 36.1692 28.8928 35.8829 29.4439 35.7881H47.8721C48.4231 35.8829 48.9228 36.1692 49.2831 36.5964C49.6433 37.0236 49.8409 37.5642 49.8409 38.1227C49.8409 38.6813 49.6433 39.2219 49.2831 39.6491C48.9228 40.0763 48.4231 40.3626 47.8721 40.4574H29.4439ZM18.1911 18.7996C18.7388 18.7996 19.2742 18.9619 19.7296 19.2659C20.185 19.5698 20.5399 20.0019 20.7495 20.5074C20.9591 21.0129 21.0139 21.5691 20.9071 22.1058C20.8002 22.6424 20.5365 23.1354 20.1492 23.5223C19.7619 23.9091 19.2685 24.1726 18.7313 24.2794C18.1942 24.3861 17.6374 24.3313 17.1314 24.1219C16.6253 23.9126 16.1929 23.558 15.8886 23.103C15.5843 22.6481 15.4219 22.1132 15.4219 21.5661C15.4219 21.2028 15.4935 20.843 15.6327 20.5074C15.7718 20.1718 15.9758 19.8668 16.233 19.6099C16.4901 19.353 16.7954 19.1492 17.1314 19.0102C17.4673 18.8712 17.8274 18.7996 18.1911 18.7996ZM29.4439 23.8816C28.8753 23.8292 28.3503 23.5552 27.9824 23.119C27.6145 22.6828 27.4332 22.1194 27.4779 21.5508C27.4331 20.9813 27.6141 20.4171 27.9819 19.9797C28.3496 19.5423 28.8747 19.2667 29.4439 19.2123H55.3688C55.9449 19.2572 56.4796 19.5287 56.8554 19.9672C57.2312 20.4057 57.4174 20.9752 57.3731 21.5508C57.4177 22.1194 57.2365 22.6828 56.8685 23.119C56.5006 23.5552 55.9756 23.8292 55.4071 23.8816H29.4439Z" fill="#7E52A0"/>
</g>
<defs>
<clipPath id="clip0_340_844">
<rect width="94" height="82" fill="white"/>
</clipPath>
</defs>
</svg>
